<svg preserveAspectRatio="none" width="100%" height="100%" overflow="visible" style="display: block;" viewBox="0 0 1278 205" fill="none" xmlns="http://www.w3.org/2000/svg">
<g id="PRERNA_background" opacity="0.03">
<path d="M0 205V0H88.7159C107.064 0 122.875 3.02619 136.148 9.07858C149.421 14.9357 159.669 23.4286 166.891 34.5571C174.114 45.6857 177.725 58.9619 177.725 74.3857C177.725 89.6143 174.114 102.793 166.891 113.921C159.669 125.05 149.421 133.64 136.148 139.693C122.875 145.55 107.064 148.479 88.7159 148.479H26.3513L47.4323 127.1V205H0ZM47.4323 132.371L26.3513 109.821H86.0808C100.72 109.821 111.651 106.698 118.874 100.45C126.096 94.2024 129.707 85.5143 129.707 74.3857C129.707 63.0619 126.096 54.2762 118.874 48.0286C111.651 41.781 100.72 38.6571 86.0808 38.6571H26.3513L47.4323 16.1071V132.371Z" fill="var(--fill-0, #1D2F46)"/>
<path d="M211.588 205V0H299.133C327.631 0 349.786 6.6381 365.596 19.9143C381.407 32.9952 389.313 51.1524 389.313 74.3857C389.313 89.6143 385.701 102.793 378.479 113.921C371.257 124.855 361.009 133.25 347.736 139.107C334.463 144.964 318.652 147.893 300.304 147.893H237.939L259.02 127.1V205H211.588ZM341.88 205L290.642 130.614H341.295L393.119 205H341.88ZM259.02 132.371L237.939 110.114H297.669C312.308 110.114 323.239 106.99 330.461 100.743C337.684 94.3 341.295 85.5143 341.295 74.3857C341.295 63.0619 337.684 54.2762 330.461 48.0286C323.239 41.781 312.308 38.6571 297.669 38.6571H237.939L259.02 16.1071V132.371Z" fill="var(--fill-0, #1D2F46)"/>
<path d="M426.893 205V0H581.78V38.0714H474.032V166.929H585.586V205H426.893ZM470.519 119.486V82.5857H569.19V119.486H470.519Z" fill="var(--fill-0, #1D2F46)"/>
<path d="M623.326 205V0H710.871C739.37 0 761.524 6.6381 777.335 19.9143C793.146 32.9952 801.051 51.1524 801.051 74.3857C801.051 89.6143 797.44 102.793 790.218 113.921C782.996 124.855 772.748 133.25 759.475 139.107C746.201 144.964 730.391 147.893 712.042 147.893H649.678L670.759 127.1V205H623.326ZM753.619 205L702.38 130.614H753.033L804.857 205H753.619ZM670.759 132.371L649.678 110.114H709.407C724.047 110.114 734.978 106.99 742.2 100.743C749.422 94.3 753.033 85.5143 753.033 74.3857C753.033 63.0619 749.422 54.2762 742.2 48.0286C734.978 41.781 724.047 38.6571 709.407 38.6571H649.678L670.759 16.1071V132.371Z" fill="var(--fill-0, #1D2F46)"/>
<path d="M838.631 205V0H877.866L998.789 147.6H979.757V0H1026.6V205H987.663L866.447 57.4H885.478V205H838.631Z" fill="var(--fill-0, #1D2F46)"/>
<path d="M1048.16 205L1139.51 0H1186.36L1278 205H1228.23L1153.27 24.0143H1172.01L1096.76 205H1048.16ZM1093.83 161.071L1106.42 125.05H1211.83L1224.71 161.071H1093.83Z" fill="var(--fill-0, #1D2F46)"/>
</g>
</svg>
