<svg width="43" height="24" viewBox="0 0 43 24" fill="none" xmlns="http://www.w3.org/2000/svg">
<g clip-path="url(#clip0_101_329)">
<path d="M19.8856 10.2988L19.9402 10.3211C20.3863 10.8956 20.7737 11.6816 21.1991 12.2887C21.2338 12.3382 21.2697 12.4662 21.2853 12.5268C21.1596 12.8408 20.5127 13.7336 20.2876 14.0305C19.9682 14.4519 19.3823 14.9669 18.987 15.3516C18.4049 15.9063 17.7369 16.2588 17.0341 16.6126C16.418 16.9227 16.0588 17.0451 15.423 17.2483C13.5867 17.8349 11.6711 17.731 9.76986 17.7226C8.58821 17.7174 7.39353 17.7557 6.2168 17.7168C5.74093 17.7154 5.24593 17.7073 4.77184 17.7238C4.79696 17.4942 4.78759 17.139 4.78836 16.8982C4.78585 16.3726 4.79061 15.847 4.80266 15.3216L10.4963 15.3048C11.5004 15.305 12.7444 15.3804 13.7233 15.2588C15.8491 14.995 17.7422 13.7602 18.8683 11.9428C19.1797 11.4401 19.5457 10.737 19.8856 10.2988Z" fill="#1D2F46"/>
<path d="M23.719 4.58205C24.3694 4.55911 25.395 4.57453 26.0205 4.59898C25.8787 4.77037 25.5483 5.35828 25.4102 5.57913L23.6707 8.40787C23.6135 8.50828 23.4101 8.90981 23.3216 8.92362C23.1195 8.79272 22.0922 7.16304 21.9114 6.86965C22.1675 6.30037 22.9192 5.20528 23.3009 4.66324C23.365 4.57221 23.6027 4.58374 23.719 4.58205Z" fill="#1D2F46"/>
<path d="M27.3063 20.67C27.138 20.4894 26.902 20.1337 26.7548 19.9205C26.1556 19.0527 25.6125 18.1236 25.0437 17.2387L19.2718 8.13512L18.3131 6.62942C17.8608 5.91537 17.4807 5.25345 16.8692 4.66988C13.5934 1.54395 8.38798 1.664 5.1487 4.80134C3.68098 6.2229 2.68985 8.24841 2.59287 10.3313C2.57665 11.1265 2.60103 12.0809 2.59713 12.9059L2.58356 19.1953C2.58978 19.9896 2.59081 20.784 2.58666 21.5783C2.5846 21.9523 2.59486 22.3236 2.56057 22.7013C2.46724 23.7296 1.10146 24.0964 0.436865 23.3614C0.31671 23.2285 0.222109 23.0599 0.214642 22.8791C0.174699 22.2734 0.191344 21.6275 0.192051 21.0198L0.193171 17.585L0.192413 12.9694C0.192349 12.0163 0.159333 11.0336 0.230069 10.0801C0.453058 7.24468 1.76229 4.75501 3.85231 2.84227C8.4387 -1.35513 16.2577 -0.725544 19.7658 4.51341C20.291 5.29777 20.7529 6.13058 21.2722 6.91463C23.2596 9.91517 25.0711 13.0503 27.0373 16.0593C27.2869 16.438 27.5309 16.8206 27.769 17.2067C28.8197 18.9191 30.064 20.3992 32.2434 20.5463C33.9255 20.6598 35.9658 19.7481 37.223 18.6702C39.0818 17.0787 40.2237 14.8074 40.3922 12.3661C40.4695 11.3274 40.3866 10.2886 40.152 9.28955C39.2998 5.66087 35.9259 2.86369 32.2467 2.50147C32.0756 2.48462 31.8518 2.49069 31.691 2.45635C31.6205 2.47062 31.2148 2.46397 31.1222 2.46364L29.8966 2.46207L24.6485 2.45347C24.3804 2.46334 24.0952 2.44414 23.8242 2.44667C23.3365 2.45124 22.8575 2.45405 22.3694 2.43969C21.9866 2.1766 21.6508 1.75656 21.3171 1.42307C20.8892 0.995387 20.4417 0.563654 20.05 0.10474C20.9974 0.18402 21.8738 0.168331 22.8232 0.167661L25.8434 0.159947C27.296 0.195601 28.8061 0.139793 30.2674 0.161821C31.2389 0.176465 31.9005 0.131663 32.8683 0.259491C37.3179 0.855202 40.8443 3.83607 42.2168 8.06321C42.742 9.68066 42.8524 11.5306 42.6277 13.2041C42.2168 16.2594 40.5998 19.0232 38.138 20.8785C36.9342 21.7959 35.0269 22.5652 33.5459 22.8241C32.3953 23.0252 30.8775 22.9826 29.6979 22.9732L25.3753 22.9615L22.4273 22.9716C21.9415 22.9724 21.4511 22.9979 20.9698 22.9527C20.6693 22.9245 20.4308 22.7644 20.2605 22.537C19.914 22.0745 19.9514 21.2354 20.4705 20.9052C20.6394 20.7979 20.8129 20.6872 21.0242 20.669C21.6451 20.6235 22.3292 20.6505 22.9564 20.6513L27.3063 20.67Z" fill="#1D2F46"/>
<path d="M24.6485 2.45346C24.7634 2.37529 26.479 2.40757 26.7558 2.40855L29.4244 2.41125L30.9666 2.41924C31.0805 2.42048 31.6144 2.41542 31.691 2.45634C31.6205 2.47061 31.2148 2.46396 31.1222 2.46363L29.8966 2.46206L24.6485 2.45346Z" fill="#00070F"/>
</g>
<defs>
<clipPath id="clip0_101_329">
<rect width="42.9375" height="24" fill="white"/>
</clipPath>
</defs>
</svg>
